<?xml version="1.0" encoding="UTF-8"?>
<svg xmlns="http://www.w3.org/2000/svg" xmlns:xlink="http://www.w3.org/1999/xlink" width="125px" height="150px" viewBox="0 0 125 150" version="1.1">
<g id="surface1">
<path style=" stroke:none;fill-rule:nonzero;fill:rgb(0.392157%,0.392157%,0.392157%);fill-opacity:1;" d="M 124.976562 73.347656 C 124.636719 48.269531 112.984375 23.851562 94.957031 10.996094 C 80.753906 0.378906 62.8125 -2.476562 46.652344 2.421875 C 22.328125 9.769531 2.9375 36.203125 0.476562 66.328125 C -2.585938 94.78125 9.402344 124.375 29.898438 138.964844 C 49.96875 154.070312 77.265625 153.457031 96.890625 137.558594 C 114.578125 123.78125 125.550781 98.652344 124.957031 73.367188 Z M 65.957031 138.867188 C 37.554688 142.234375 10.085938 113.355469 9.316406 79.167969 C 7.167969 51.410156 22.414062 23.957031 44.183594 14.773438 C 74.714844 0.078125 112.21875 27.222656 115.367188 66.515625 C 120.296875 101.820312 95.804688 137.765625 65.957031 138.867188 Z M 47.265625 71.203125 L 88.339844 30.890625 L 66.144531 71.304688 C 59.851562 71.304688 53.558594 71.304688 47.265625 71.199219 Z M 58.8125 78.65625 L 77.695312 78.757812 L 36.617188 119.171875 L 58.816406 78.65625 Z M 58.8125 78.65625 "/>
</g>
</svg>
