<?xml version="1.0" encoding="UTF-8"?>
<svg xmlns="http://www.w3.org/2000/svg" xmlns:xlink="http://www.w3.org/1999/xlink" width="160px" height="160px" viewBox="0 0 160 160" version="1.1">
<defs>
<linearGradient id="linear0" gradientUnits="userSpaceOnUse" x1="53.9738" y1="54.974" x2="94.1635" y2="71.8295" gradientTransform="matrix(1.46789,0,0,1.415929,0,0)">
<stop offset="0" style="stop-color:rgb(14.117647%,57.647059%,38.039216%);stop-opacity:1;"/>
<stop offset="1" style="stop-color:rgb(24.313725%,81.176471%,55.686275%);stop-opacity:1;"/>
</linearGradient>
<linearGradient id="linear1" gradientUnits="userSpaceOnUse" x1="36.1558" y1="30.578" x2="54.4844" y2="65.0806" gradientTransform="matrix(1.46789,0,0,1.415929,0,0)">
<stop offset="0" style="stop-color:rgb(0%,0%,0%);stop-opacity:0.2;"/>
<stop offset="1" style="stop-color:rgb(0%,0%,0%);stop-opacity:0;"/>
</linearGradient>
</defs>
<g id="surface1">
<path style=" stroke:none;fill-rule:nonzero;fill:url(#linear0);" d="M 93.515625 156.152344 C 89.320312 161.253906 80.808594 158.457031 80.707031 151.949219 L 79.226562 56.726562 L 145.605469 56.726562 C 157.625 56.726562 164.332031 70.121094 156.855469 79.203125 Z M 93.515625 156.152344 "/>
<path style=" stroke:none;fill-rule:nonzero;fill:url(#linear1);" d="M 93.515625 156.152344 C 89.320312 161.253906 80.808594 158.457031 80.707031 151.949219 L 79.226562 56.726562 L 145.605469 56.726562 C 157.625 56.726562 164.332031 70.121094 156.855469 79.203125 Z M 93.515625 156.152344 "/>
<path style=" stroke:none;fill-rule:nonzero;fill:rgb(24.313725%,81.176471%,55.686275%);fill-opacity:1;" d="M 66.519531 2.933594 C 70.714844 -2.167969 79.230469 0.628906 79.328125 7.136719 L 79.976562 102.359375 L 14.429688 102.359375 C 2.410156 102.359375 -4.296875 88.964844 3.179688 79.882812 Z M 66.519531 2.933594 "/>
</g>
</svg>
