<!--?xml version="1.0" standalone="no"?-->
              <svg id="sw-js-blob-svg" viewBox="0 0 100 100" xmlns="http://www.w3.org/2000/svg" version="1.1">
                    <defs> 
                        <linearGradient id="sw-gradient" x1="0" x2="1" y1="1" y2="0">
                            <stop id="stop1" stop-color="rgba(248, 117, 55, 1)" offset="0%"></stop>
                            <stop id="stop2" stop-color="rgba(251, 168, 31, 1)" offset="100%"></stop>
                        </linearGradient>
                    </defs>
                <path fill="url(#sw-gradient)" d="M22.9,-40.2C29.3,-36.1,33.6,-29,35.4,-21.8C37.2,-14.6,36.6,-7.3,36.7,0.1C36.8,7.4,37.6,14.8,35.3,21.1C32.9,27.4,27.4,32.6,21,36.3C14.6,40,7.3,42.3,-0.4,42.9C-8,43.6,-16.1,42.7,-21.9,38.6C-27.7,34.5,-31.2,27.3,-35.1,20.3C-39.1,13.4,-43.5,6.7,-44.7,-0.7C-45.9,-8.1,-43.9,-16.1,-39.7,-22.7C-35.5,-29.2,-29,-34.1,-22,-37.9C-15.1,-41.6,-7.5,-44.2,0.4,-44.8C8.3,-45.5,16.6,-44.4,22.9,-40.2Z" width="100%" height="100%" transform="translate(50 50)" style="transition: 0.3s;" stroke-width="0"></path>
              </svg>